<svg width="163" height="131" viewBox="0 0 163 131" fill="none" xmlns="http://www.w3.org/2000/svg">
<path d="M144.594 49.5702H144.543L115.137 62.0848L74.9047 79.2077C74.7475 79.2736 74.5788 79.3079 74.4083 79.3088C74.2377 79.3097 74.0687 79.277 73.9108 79.2127L32.4025 62.0491L2.27459 49.5906L2.22857 49.5702H2.17731C1.70193 49.5707 1.24617 49.7592 0.910029 50.0942C0.573886 50.4292 0.384804 50.8835 0.384277 51.3573V128.968C0.384804 129.441 0.573886 129.896 0.910029 130.231C1.24617 130.566 1.70193 130.754 2.17731 130.755H144.594C145.07 130.754 145.525 130.566 145.861 130.231C146.198 129.896 146.387 129.441 146.387 128.968V51.3573C146.387 50.8835 146.198 50.4292 145.861 50.0942C145.525 49.7592 145.07 49.5707 144.594 49.5702Z" fill="white"/>
<path d="M144.721 50.0809C144.669 50.081 144.618 50.065 144.575 50.0352L73.7358 0.864058C73.5202 0.715117 73.264 0.635518 73.0017 0.635964C72.7394 0.63641 72.4835 0.716875 72.2684 0.866548L1.93939 50.0347C1.88375 50.0733 1.81503 50.0883 1.74829 50.0765C1.68155 50.0647 1.62222 50.027 1.5833 49.9717C1.54437 49.9164 1.52905 49.848 1.54064 49.7814C1.55224 49.7149 1.58981 49.6556 1.64516 49.6166L71.9743 0.448468C72.2754 0.23896 72.6337 0.126337 73.0009 0.125735C73.3681 0.125133 73.7267 0.236582 74.0285 0.445103L144.868 49.6161C144.913 49.6472 144.946 49.6917 144.964 49.7431C144.981 49.7946 144.982 49.8503 144.966 49.9022C144.949 49.954 144.917 49.9993 144.873 50.0315C144.829 50.0636 144.776 50.081 144.721 50.0809H144.721Z" fill="#3F3D56"/>
<path d="M5.95728 51.8239L73.0702 2.24951L140.693 55.3512L76.5282 93.2626L41.6925 85.3488L5.95728 51.8239Z" fill="#E6E6E6"/>
<path d="M44.6361 116.68H11.4805C11.0697 116.681 10.6754 116.519 10.3845 116.229C10.0936 115.94 9.92981 115.548 9.9292 115.138C9.92859 114.729 10.0912 114.336 10.3813 114.046C10.6713 113.756 11.0651 113.593 11.4759 113.592H44.6361C45.0469 113.592 45.4411 113.754 45.7321 114.043C46.023 114.332 46.1868 114.724 46.1874 115.134C46.188 115.543 46.0254 115.936 45.7353 116.226C45.4452 116.516 45.0515 116.679 44.6406 116.68H44.6361Z" fill="black"/>
<path d="M23.3749 110.042H11.4794C11.0688 110.042 10.6748 109.88 10.3841 109.591C10.0934 109.302 9.92981 108.909 9.9292 108.5C9.92859 108.091 10.0911 107.698 10.3809 107.408C10.6707 107.118 11.0642 106.955 11.4748 106.954H23.3749C23.5784 106.953 23.78 106.993 23.9682 107.07C24.1564 107.147 24.3274 107.261 24.4716 107.404C24.6157 107.547 24.7302 107.717 24.8084 107.905C24.8866 108.092 24.927 108.293 24.9273 108.495C24.9276 108.698 24.8878 108.899 24.8101 109.087C24.7325 109.274 24.6185 109.445 24.4748 109.588C24.3311 109.732 24.1604 109.846 23.9724 109.924C23.7845 110.001 23.583 110.041 23.3795 110.042H23.3749Z" fill="black"/>
<path d="M74.0185 79.4363C73.7665 79.4366 73.5168 79.3878 73.2836 79.2928L31.8928 62.1754V8.59518C31.8934 8.12139 32.0825 7.66716 32.4186 7.33214C32.7547 6.99712 33.2105 6.80866 33.6858 6.80811H113.091C113.566 6.80866 114.022 6.99712 114.358 7.33214C114.694 7.66716 114.883 8.12139 114.884 8.59518V62.2128L114.806 62.246L74.7757 79.2845C74.5359 79.3849 74.2785 79.4365 74.0185 79.4363Z" fill="white"/>
<path d="M74.0184 79.5641C73.7497 79.5644 73.4835 79.5125 73.2347 79.4113L31.7646 62.261V8.59551C31.7652 8.08787 31.9678 7.60119 32.328 7.24223C32.6881 6.88327 33.1764 6.68136 33.6857 6.68079H113.091C113.6 6.68136 114.088 6.88327 114.449 7.24223C114.809 7.60119 115.011 8.08787 115.012 8.59551V62.2974L74.8259 79.4021C74.5703 79.5093 74.2957 79.5644 74.0184 79.5641ZM32.2769 61.92L73.4301 78.9393C73.8139 79.0945 74.2438 79.0919 74.6258 78.9322L114.5 61.9604V8.59551C114.499 8.22325 114.351 7.86637 114.087 7.60314C113.822 7.33991 113.464 7.19184 113.091 7.1914H33.6857C33.3122 7.19184 32.9542 7.33991 32.6901 7.60314C32.426 7.86637 32.2774 8.22325 32.2769 8.59551L32.2769 61.92Z" fill="#3F3D56"/>
<path d="M144.21 49.5702H144.159L114.753 62.0848L74.5205 79.2077C74.3633 79.2736 74.1945 79.3079 74.024 79.3088C73.8534 79.3097 73.6844 79.277 73.5265 79.2127L32.0182 62.0491L1.89034 49.5906L1.8443 49.5702H1.79301C1.31763 49.5707 0.861893 49.7592 0.525751 50.0942C0.189609 50.4292 0.000526936 50.8835 0 51.3573V128.968C0.000526936 129.441 0.189609 129.896 0.525751 130.231C0.861893 130.566 1.31763 130.754 1.79301 130.755H144.21C144.685 130.754 145.141 130.566 145.477 130.231C145.813 129.896 146.002 129.441 146.003 128.968V51.3573C146.002 50.8835 145.813 50.4292 145.477 50.0942C145.141 49.7592 144.685 49.5707 144.21 49.5702ZM145.491 128.968C145.491 129.306 145.356 129.631 145.115 129.87C144.875 130.109 144.55 130.244 144.21 130.244H1.79301C1.45338 130.244 1.12769 130.109 0.887541 129.87C0.647387 129.631 0.512431 129.306 0.512295 128.968V51.3573C0.51276 51.0272 0.641207 50.71 0.870821 50.4721C1.10044 50.2342 1.41342 50.094 1.74435 50.0808L32.0182 62.6006L73.3294 79.685C73.7766 79.8664 74.2777 79.8636 74.7228 79.6774L114.753 62.6389L144.261 50.0808C144.592 50.095 144.904 50.2356 145.133 50.4734C145.362 50.7111 145.49 51.0277 145.491 51.3573V128.968Z" fill="#3F3D56"/>
<path d="M67.5741 26.8365H39.3981C38.8551 26.8357 38.3347 26.6202 37.951 26.2372C37.5673 25.8543 37.3518 25.3353 37.3518 24.7941C37.3518 24.2529 37.5673 23.7339 37.951 23.3509C38.3347 22.968 38.8551 22.7525 39.3981 22.7517H67.5741C68.1171 22.7525 68.6375 22.968 69.0212 23.3509C69.4049 23.7339 69.6204 24.2529 69.6204 24.7941C69.6204 25.3353 69.4049 25.8543 69.0212 26.2372C68.6375 26.6202 68.1171 26.8357 67.5741 26.8365Z" fill="black"/>
<path d="M52.9725 18.1563H39.3968C38.8533 18.1563 38.3321 17.9411 37.9478 17.5581C37.5636 17.1751 37.3477 16.6556 37.3477 16.1139C37.3477 15.5722 37.5636 15.0527 37.9478 14.6697C38.3321 14.2867 38.8533 14.0715 39.3968 14.0715H52.9725C53.516 14.0715 54.0372 14.2867 54.4215 14.6697C54.8058 15.0527 55.0217 15.5722 55.0217 16.1139C55.0217 16.6556 54.8058 17.1751 54.4215 17.5581C54.0372 17.9411 53.516 18.1563 52.9725 18.1563Z" fill="black"/>
<path d="M94.4588 47.261H51.4264C50.8834 47.2603 50.363 47.0447 49.9793 46.6618C49.5956 46.2789 49.3801 45.7598 49.3801 45.2186C49.3801 44.6775 49.5956 44.1584 49.9793 43.7755C50.363 43.3926 50.8834 43.177 51.4264 43.1763H94.4588C95.0018 43.177 95.5223 43.3926 95.9059 43.7755C96.2896 44.1584 96.5051 44.6775 96.5051 45.2186C96.5051 45.7598 96.2896 46.2789 95.9059 46.6618C95.5223 47.0447 95.0018 47.2603 94.4588 47.261Z" fill="#CCCCCC"/>
<path d="M94.4618 56.7062H51.4293C50.8858 56.7062 50.3646 56.491 49.9803 56.108C49.596 55.725 49.3801 55.2055 49.3801 54.6638C49.3801 54.1222 49.596 53.6027 49.9803 53.2197C50.3646 52.8366 50.8858 52.6215 51.4293 52.6215H94.4618C95.0052 52.6215 95.5264 52.8366 95.9107 53.2197C96.295 53.6027 96.5109 54.1222 96.5109 54.6638C96.5109 55.2055 96.295 55.725 95.9107 56.108C95.5264 56.491 95.0052 56.7062 94.4618 56.7062Z" fill="#CCCCCC"/>
<path d="M143.416 69.7312C154.177 69.7312 162.901 61.0364 162.901 50.3109C162.901 39.5853 154.177 30.8905 143.416 30.8905C132.655 30.8905 123.931 39.5853 123.931 50.3109C123.931 61.0364 132.655 69.7312 143.416 69.7312Z" fill="#13C4D7"/>
<path d="M141.559 58.5091L135.728 51.0352L139.119 48.4061L141.88 51.9449L151.208 42.13L154.328 45.0756L141.559 58.5091Z" fill="white"/>
</svg>
